inDegrees=yes
name=ik_lifting_orientations
DataType=double
version=3
OpenSimVersion=4.5-2024-01-10-34fd6af
endheader
time	pelvis_tilt	pelvis_list	pelvis_rotation	pelvis_tx	pelvis_ty	pelvis_tz	hip_flexion_r	hip_adduction_r	hip_rotation_r	knee_angle_r	knee_angle_r_beta	ankle_angle_r	subtalar_angle_r	mtp_angle_r	hip_flexion_l	hip_adduction_l	hip_rotation_l	knee_angle_l	knee_angle_l_beta	ankle_angle_l	subtalar_angle_l	mtp_angle_l	lumbar_extension	lumbar_bending	lumbar_rotation	arm_flex_r	arm_add_r	arm_rot_r	elbow_flex_r	pro_sup_r	wrist_flex_r	wrist_dev_r	arm_flex_l	arm_add_l	arm_rot_l	elbow_flex_l	pro_sup_l	wrist_flex_l	wrist_dev_l
0.68	-3.90884500887833	22.41538961833639	-81.59261982315073	0	0.9399999998679526	0	45.45838487355891	-10.10401105948204	0	60.24078395743254	1.051400024039777	-5.02841480912611	0	0	45.45838487355891	-10.10401105948204	0	60.24078395743254	1.051400024039777	-5.02841480912611	0	0	26.60639444156327	0.472521899390027	-27.78693599992926	-1.13947973676597	-2.091824418050302	25.26319143286274	0.02809954457642383	0.6961925484140252	0	0	0	-12.98120960414099	0	89.32405112986314	0.6961925484140252	0	0
0.6899999999999999	-4.031514492007628	23.72662926457618	-81.41004621230199	0	0.9399999998679526	0	45.45819940915224	-10.10386593732373	0	60.24070674724458	1.051398676467781	-5.02836322659198	0	0	45.45819940915224	-10.10386593732373	0	60.24070674724458	1.051398676467781	-5.02836322659198	0	0	29.66994233592182	0.4318488653759318	-29.30848351737073	-2.402410408179199	-2.792815232104954	26.72084815403547	0.02709008888887753	0.6959957577034964	0	0	0	-12.98163099586747	0	89.32424214830692	0.6959957577034964	0	0
0.7	-4.017667924967295	25.03567076624042	-81.47692019501956	0	0.9399999998679526	0	45.4580495211182	-10.1037495802982	0	60.24064398226631	1.051397581012256	-5.028321937931449	0	0	45.4580495211182	-10.1037495802982	0	60.24064398226631	1.051397581012256	-5.028321937931449	0	0	32.71779285671222	0.3264822124259193	-28.46680202319236	-3.835357977129935	-3.398627809912595	26.05038717088823	0.02622375581431623	0.6958363441984705	0	0	0	-12.9819730215147	0	89.32439688589659	0.6958363441984705	0	0
0.71	-4.084919110698988	26.28194379871777	-81.49094438152567	0	0.9399999998679526	0	45.45790859344468	-10.1036403599002	0	60.24058492619837	1.051396550289427	-5.028283201274007	0	0	45.45790859344468	-10.1036403599002	0	60.24058492619837	1.051396550289427	-5.028283201274007	0	0	35.89416281613321	0.2719785699759896	-27.91453971201599	-5.503371232546082	-4.030591447248542	25.63037645682747	0.02546573489946542	0.6956864069246482	0	0	0	-12.98229480491019	0	89.3245424252124	0.6956864069246482	0	0
0.72	-4.091662322990455	27.47909788557171	-81.13468823370135	0	0.9399999998679526	0	45.45775671540444	-10.10352181742515	0	60.24052166621461	1.051395446194425	-5.028241107434917	0	0	45.45775671540444	-10.10352181742515	0	60.24052166621461	1.051395446194425	-5.028241107434917	0	0	38.90675536577086	-0.1119360056578198	-27.73849553203031	-7.159204245784672	-4.560672297723246	25.36287372805312	0.02503940189566502	0.6955251889803924	0	0	0	-12.98264012209104	0	89.32469891431136	0.6955251889803924	0	0
0.73	-4.200534804363241	28.59794447972627	-80.90135868976314	0	0.9399999998679526	0	45.45759957529216	-10.10340063927853	0	60.24045561984956	1.051394293467896	-5.028198184802242	0	0	45.45759957529216	-10.10340063927853	0	60.24045561984956	1.051394293467896	-5.028198184802242	0	0	41.71964932523399	-0.3741528376501277	-27.58650129008327	-8.754129780970137	-5.003638799785355	25.16118830276608	0.0246391434147857	0.6953577863796681	0	0	0	-12.98299976810051	0	89.32486140666315	0.6953577863796681	0	0
0.74	-4.366931099338275	29.57732418975205	-80.49802690402572	0	0.9399999998679526	0	45.45749603109147	-10.10332156372603	0	60.24041178886674	1.051393528472932	-5.028170232286603	0	0	45.45749603109147	-10.10332156372603	0	60.24041178886674	1.051393528472932	-5.028170232286603	0	0	44.339997785162	-0.7540098255083566	-27.70269380231884	-10.38542619095588	-5.401318187250453	25.17970084867824	0.0245926365037063	0.6952471664617608	0	0	0	-12.98323798609359	0	89.32496878188279	0.6952471664617608	0	0
0.75	-4.354289779782402	30.60352448290297	-80.29660797858207	0	0.9399999998679526	0	45.45734371252659	-10.10320395880342	0	60.24034789236595	1.051392413268613	-5.028128578354508	0	0	45.45734371252659	-10.10320395880342	0	60.24034789236595	1.051392413268613	-5.028128578354508	0	0	47.17406979574558	-1.17811286995177	-27.66329678745731	-12.16299166950438	-5.912193445494052	25.26201294116252	0.02466720552468075	0.6950850019180527	0	0	0	-12.9835861804326	0	89.32512618981947	0.6950850019180527	0	0
0.76	-4.423351908020891	31.52388233182785	-79.94452594209591	0	0.9399999998679526	0	45.45722104018771	-10.10310961341126	0	60.24029629292218	1.051391512688427	-5.028095191935509	0	0	45.45722104018771	-10.10310961341126	0	60.24029629292218	1.051391512688427	-5.028095191935509	0	0	49.90184177685028	-1.732090706255372	-27.93551316841684	-14.2887800898556	-6.314815485352185	25.50229959434716	0.0241931789203393	0.6949542552598069	0	0	0	-12.98386717412273	0	89.32525310142064	0.6949542552598069	0	0
0.77	-4.497367149362788	32.5259105002417	-79.93914376520335	0	0.9399999998679526	0	45.45709346457067	-10.10301414940733	0	60.24024150359434	1.051390556434261	-5.028061593240301	0	0	45.45709346457067	-10.10301414940733	0	60.24024150359434	1.051390556434261	-5.028061593240301	0	0	52.51631110562732	-2.132675458657249	-28.00941295604082	-16.24154255931314	-6.758420353374214	25.92599934838713	0.02401248430912736	0.6948171638157901	0	0	0	-12.98416382985387	0	89.32538617171119	0.6948171638157901	0	0
0.78	-4.451562872153826	33.35407483942956	-79.98937974876209	0	0.9399999998679526	0	45.45690416969268	-10.10287131609322	0	60.24016076366623	1.051389147256677	-5.028011249053815	0	0	45.45690416969268	-10.10287131609322	0	60.24016076366623	1.051389147256677	-5.028011249053815	0	0	54.94457254243861	-2.592208158101286	-27.9970757429778	-18.040190155895	-7.242936721321289	26.36797613158276	0.02458398784808139	0.6946142817771448	0	0	0	-12.98460188430772	0	89.32558310282882	0.6946142817771448	0	0
0.79	-4.285632753074877	34.04948560647463	-80.15500311604482	0	0.9399999998679526	0	45.45675852115492	-10.10276021946804	0	60.24009920118857	1.051388072788747	-5.027972017450599	0	0	45.45675852115492	-10.10276021946804	0	60.24009920118857	1.051388072788747	-5.027972017450599	0	0	56.93394622910287	-3.054213860199931	-27.88148636573591	-19.69403322929119	-7.712908313824921	26.69164937200106	0.02484691760887933	0.6944587183789501	0	0	0	-12.98493678635169	0	89.32573410324882	0.6944587183789501	0	0
0.8	-4.238116217376813	34.80627857923668	-80.19514002558586	0	0.9399999998679526	0	45.45660099893851	-10.10264009525707	0	60.24003264553264	1.051386911173415	-5.027929607885702	0	0	45.45660099893851	-10.10264009525707	0	60.24003264553264	1.051386911173415	-5.027929607885702	0	0	59.07276787504458	-3.540671271861389	-27.82677254011603	-21.48374047361166	-8.143212151818537	26.91568688551527	0.02474816260231202	0.6942904855999795	0	0	0	-12.98529893186078	0	89.32589740143202	0.6942904855999795	0	0
0.8100000000000001	-3.968457150928339	34.81773048019578	-80.42241965428663	0	0.9399999998679526	0	45.4564165717164	-10.10250017343829	0	60.23995445448715	1.051385546482225	-5.027880266815768	0	0	45.4564165717164	-10.10250017343829	0	60.23995445448715	1.051385546482225	-5.027880266815768	0	0	60.56765099261709	-4.009349537720624	-27.68785780846029	-23.40988225561562	-8.635138656806658	27.09348127577475	0.02479912165751268	0.6940932386983685	0	0	0	-12.98572403171412	0	89.32608886269921	0.6940932386983685	0	0
0.82	-3.806665099051755	35.08490585780785	-80.69261374460548	0	0.9399999998679526	0	45.45625505134274	-10.10237404039209	0	60.23988758619505	1.051384379410363	-5.027835554264856	0	0	45.45625505134274	-10.10237404039209	0	60.23988758619505	1.051384379410363	-5.027835554264856	0	0	61.51470081640623	-4.20850968504369	-27.56187744202496	-24.53340963717791	-8.892792802845703	27.21324105460186	0.02474078903503983	0.693922063512913	0	0	0	-12.98609008444276	0	89.32625501697242	0.693922063512913	0	0
0.83	-3.542467585159276	35.22397009522626	-80.97355908359447	0	0.9399999998679526	0	45.45611673195515	-10.10226914367198	0	60.23982899280952	1.051383356762866	-5.02779858163563	0	0	45.45611673195515	-10.10226914367198	0	60.23982899280952	1.051383356762866	-5.02779858163563	0	0	63.13251494010586	-4.841053331386036	-27.58798796302373	-26.52945258567981	-9.270533132974279	27.58752390853599	0.02471944986651981	0.6937741555485116	0	0	0	-12.98640878812667	0	89.3263985865091	0.6937741555485116	0	0
0.84	-3.321317396008153	35.60567826925219	-81.48147838426165	0	0.9399999998679526	0	45.45597236734283	-10.10215770349828	0	60.23976873418534	1.051382305051471	-5.027759178291437	0	0	45.45597236734283	-10.10215770349828	0	60.23976873418534	1.051382305051471	-5.027759178291437	0	0	65.13955065690593	-5.290574610953001	-27.5936753030624	-28.47272439862577	-9.751374725318907	28.07469581172251	0.02463498677691494	0.693620653628983	0	0	0	-12.98673795840552	0	89.32654758591288	0.693620653628983	0	0
0.85	-3.411819273852314	35.97992619322567	-82.20584373641279	0	0.9399999998679526	0	45.45580269999932	-10.10202594933142	0	60.23969829266304	1.051381075614977	-5.027712548256155	0	0	45.45580269999932	-10.10202594933142	0	60.23969829266304	1.051381075614977	-5.027712548256155	0	0	67.16743948886618	-5.19780357278474	-27.71315217981007	-30.36679693381722	-10.31991916335381	28.64932223274385	0.02425954750512897	0.6934406078381095	0	0	0	-12.98712338543305	0	89.326722350601	0.6934406078381095	0	0
0.86	-3.421306008130458	36.91870201576268	-82.48730721495986	0	0.9399999998679526	0	45.45564614930705	-10.1019067277722	0	60.23963231638935	1.051379924111773	-5.02767051841938	0	0	45.45564614930705	-10.1019067277722	0	60.23963231638935	1.051379924111773	-5.02767051841938	0	0	69.49872450740251	-5.458749626167223	-27.82242532982143	-32.06709867761341	-10.79418762898134	29.10236430664862	0.0235122055546881	0.693273501005826	0	0	0	-12.98748289231876	0	89.32688455586364	0.693273501005826	0	0
0.87	-3.318563047964698	37.42165852525477	-82.680201372865	0	0.9399999998679526	0	45.45546955651597	-10.10177034290971	0	60.23955876454495	1.051378640389917	-5.027622318408448	0	0	45.45546955651597	-10.10177034290971	0	60.23955876454495	1.051378640389917	-5.027622318408448	0	0	71.30808607721293	-5.971670595371565	-27.90219208869742	-33.48821306249881	-11.16235869416242	29.5969315336271	0.02313679889492463	0.6930858449371291	0	0	0	-12.98788506728613	0	89.32706670760717	0.6930858449371291	0	0
